# xmcd
#
# Track frame offsets:
#	150
#	13550
#	27352
#	41350
#	55962
#	70192
#	84227
#	97462
#	111975
#	125057
#	140185
#	154172
#	167767
#	181287
#	195675
#	209207
#	222100
#	233850
#	246427
#	258835
#	271597
#	284127
#
# Disc length: 3958 seconds
#
# Revision: 0
# Processed by: cddbd v1.5.1PL0 Copyright (c) Steve Scherf et al.
# Submitted via: dBpowerAMP V4.0
#
DISCID=550f7416
DTITLE=Buddy Moss  - Complete Works Vol. 3 1935-1941 document
DYEAR=1900
DGENRE=blues
TTITLE0=gravy server
TTITLE1=going to your funeral in a v8 ford
TTITLE2=my baby won't pay me no mind
TTITLE3=undertaker blues
TTITLE4=oh lordy mama no 2
TTITLE5=worrysome woman
TTITLE6=your hard head will bring you sorrow some day
TTITLE7=can't use you no more
TTITLE8=see what you done done
TTITLE9=sop hanging around
TTITLE10=on my way
TTITLE11=how about you
TTITLE12=talking about my time
TTITLE13=you got to give me some of it
TTITLE14=mistreated boy
TTITLE15=you need a woman
TTITLE16=joy rag
TTITLE17=little angel blues
TTITLE18=struggle buggie
TTITLE19=i'm sittin' here tonight
TTITLE20=baby you're the one for me 
TTITLE21=unfinished business
EXTD=
EXTT0=
EXTT1=
EXTT2=
EXTT3=
EXTT4=
EXTT5=
EXTT6=
EXTT7=
EXTT8=
EXTT9=
EXTT10=
EXTT11=
EXTT12=
EXTT13=
EXTT14=
EXTT15=
EXTT16=
EXTT17=
EXTT18=
EXTT19=
EXTT20=
EXTT21=
PLAYORDER=
